<svg width="345" height="60" viewBox="0 0 345 60" fill="none" xmlns="http://www.w3.org/2000/svg">
<g clip-path="url(#clip0_21_662)">
<path d="M0 0.774414V5.00369L38.8741 4.64738V0.774414H0Z" fill="white"/>
<path d="M0 27.8853V32.1145L38.8741 31.7582V27.8853H0Z" fill="white"/>
<path d="M0 55.7705V59.9998L38.8741 59.6435V55.7705H0Z" fill="white"/>
<path d="M126.73 0V4.22928L165.604 3.87297V0H126.73Z" fill="white"/>
<path d="M126.73 27.1108V31.3401L165.604 30.9838V27.1108H126.73Z" fill="white"/>
<path d="M126.73 54.9961V59.2254L165.604 58.8691V54.9961H126.73Z" fill="white"/>
<path d="M52.449 0.774414H57.4093L80.4694 53.8341L105.147 0.774414H109.718L83.1129 59.9998H79.0466L52.449 0.774414Z" fill="white"/>
<path d="M192.194 59.9998H188.026V0.774414H192.194L232.079 53.0595V0.774414H235.865V59.9998H232.094L192.427 9.68224L192.194 59.9998Z" fill="white"/>
<path d="M252.736 0.774414H299.789V4.74033H278.447V59.9998H274.179V4.26008H252.736V0.774414Z" fill="white"/>
<path d="M329.427 12.7808H325.376V47.8543H329.427V12.7808Z" fill="white"/>
<path d="M345.008 28.2959H309.803V32.3315H345.008V28.2959Z" fill="white"/>
</g>
<defs>
<clipPath id="clip0_21_662">
<rect width="345" height="60" fill="white"/>
</clipPath>
</defs>
</svg>
